{
    "asset" : {
        "generator" : "Khronos glTF Blender I/O v1.4.40",
        "version" : "2.0"
    },
    "scene" : 0,
    "scenes" : [
        {
            "name" : "Scene",
            "nodes" : [
                0
            ]
        }
    ],
    "nodes" : [
        {
            "mesh" : 0,
            "name" : "cryst_03",
            "scale" : [
                20.028520584106445,
                38.49362564086914,
                -22.023202896118164
            ]
        }
    ],
    "materials" : [
        {
            "doubleSided" : true,
            "name" : "copper",
            "normalTexture" : {
                "index" : 0,
                "texCoord" : 0
            },
            "pbrMetallicRoughness" : {
                "baseColorTexture" : {
                    "index" : 1,
                    "texCoord" : 0
                },
                "metallicRoughnessTexture" : {
                    "index" : 2,
                    "texCoord" : 0
                }
            }
        }
    ],
    "meshes" : [
        {
            "name" : "Roundcube.008",
            "primitives" : [
                {
                    "attributes" : {
                        "POSITION" : 0,
                        "NORMAL" : 1
                    },
                    "indices" : 2,
                    "material" : 0
                }
            ]
        }
    ],
    "textures" : [
        {
            "sampler" : 0,
            "source" : 0
        },
        {
            "sampler" : 0,
            "source" : 1
        },
        {
            "sampler" : 0,
            "source" : 2
        }
    ],
    "images" : [
        {
            "bufferView" : 3,
            "mimeType" : "image/jpeg",
            "name" : "Copper-scuffed_normal"
        },
        {
            "bufferView" : 4,
            "mimeType" : "image/jpeg",
            "name" : "Copper-scuffed_basecolor-boosted"
        },
        {
            "bufferView" : 5,
            "mimeType" : "image/jpeg",
            "name" : "Copper-scuffed_roughness"
        }
    ],
    "accessors" : [
        {
            "bufferView" : 0,
            "componentType" : 5126,
            "count" : 2459,
            "max" : [
                0.5635951161384583,
                0.5651478171348572,
                0.47453680634498596
            ],
            "min" : [
                -0.60490882396698,
                -0.3969978392124176,
                -0.4701395332813263
            ],
            "type" : "VEC3"
        },
        {
            "bufferView" : 1,
            "componentType" : 5126,
            "count" : 2459,
            "type" : "VEC3"
        },
        {
            "bufferView" : 2,
            "componentType" : 5123,
            "count" : 14742,
            "type" : "SCALAR"
        }
    ],
    "bufferViews" : [
        {
            "buffer" : 0,
            "byteLength" : 29508,
            "byteOffset" : 0
        },
        {
            "buffer" : 0,
            "byteLength" : 29508,
            "byteOffset" : 29508
        },
        {
            "buffer" : 0,
            "byteLength" : 29484,
            "byteOffset" : 59016
        },
        {
            "buffer" : 0,
            "byteLength" : 66179,
            "byteOffset" : 88500
        },
        {
            "buffer" : 0,
            "byteLength" : 69807,
            "byteOffset" : 154680
        },
        {
            "buffer" : 0,
            "byteLength" : 501970,
            "byteOffset" : 224488
        }
    ],
    "samplers" : [
        {
            "magFilter" : 9729,
            "minFilter" : 9986
        }
    ],
    "buffers" : [
        {
            "byteLength" : 726460,
            "uri" : "data:application/octet-stream;base64,"
        }
    ]
}
